<mxfile host="Electron" modified="2024-08-17T14:50:50.416Z" agent="Mozilla/5.0 (Windows NT 10.0; Win64; x64) AppleWebKit/537.36 (KHTML, like Gecko) draw.io/24.6.4 Chrome/124.0.6367.207 Electron/30.0.6 Safari/537.36" etag="Zve9c3vzZaOUokiVjTBJ" version="24.6.4" type="device">
  <diagram id="C5RBs43oDa-KdzZeNtuy" name="Page-1">
    <mxGraphModel dx="3645" dy="3005" grid="1" gridSize="10" guides="1" tooltips="1" connect="1" arrows="1" fold="1" page="1" pageScale="1" pageWidth="827" pageHeight="1169" math="0" shadow="0">
      <root>
        <mxCell id="WIyWlLk6GJQsqaUBKTNV-0" />
        <mxCell id="WIyWlLk6GJQsqaUBKTNV-1" parent="WIyWlLk6GJQsqaUBKTNV-0" />
        <mxCell id="zkfFHV4jXpPFQw0GAbJ--0" value="StateBehaviour" style="swimlane;fontStyle=2;align=center;verticalAlign=top;childLayout=stackLayout;horizontal=1;startSize=26;horizontalStack=0;resizeParent=1;resizeLast=0;collapsible=1;marginBottom=0;rounded=0;shadow=0;strokeWidth=1;" parent="WIyWlLk6GJQsqaUBKTNV-1" vertex="1">
          <mxGeometry x="60" y="-50" width="160" height="138" as="geometry">
            <mxRectangle x="220" y="120" width="160" height="26" as="alternateBounds" />
          </mxGeometry>
        </mxCell>
        <mxCell id="zkfFHV4jXpPFQw0GAbJ--4" value="" style="line;html=1;strokeWidth=1;align=left;verticalAlign=middle;spacingTop=-1;spacingLeft=3;spacingRight=3;rotatable=0;labelPosition=right;points=[];portConstraint=eastwest;" parent="zkfFHV4jXpPFQw0GAbJ--0" vertex="1">
          <mxGeometry y="26" width="160" height="8" as="geometry" />
        </mxCell>
        <mxCell id="zkfFHV4jXpPFQw0GAbJ--1" value="+ CanEnterState : bool" style="text;align=left;verticalAlign=top;spacingLeft=4;spacingRight=4;overflow=hidden;rotatable=0;points=[[0,0.5],[1,0.5]];portConstraint=eastwest;" parent="zkfFHV4jXpPFQw0GAbJ--0" vertex="1">
          <mxGeometry y="34" width="160" height="26" as="geometry" />
        </mxCell>
        <mxCell id="zkfFHV4jXpPFQw0GAbJ--2" value="+ CanExitState : bool" style="text;align=left;verticalAlign=top;spacingLeft=4;spacingRight=4;overflow=hidden;rotatable=0;points=[[0,0.5],[1,0.5]];portConstraint=eastwest;rounded=0;shadow=0;html=0;" parent="zkfFHV4jXpPFQw0GAbJ--0" vertex="1">
          <mxGeometry y="60" width="160" height="26" as="geometry" />
        </mxCell>
        <mxCell id="zkfFHV4jXpPFQw0GAbJ--5" value="+ OnEnterState() : void" style="text;align=left;verticalAlign=top;spacingLeft=4;spacingRight=4;overflow=hidden;rotatable=0;points=[[0,0.5],[1,0.5]];portConstraint=eastwest;" parent="zkfFHV4jXpPFQw0GAbJ--0" vertex="1">
          <mxGeometry y="86" width="160" height="26" as="geometry" />
        </mxCell>
        <mxCell id="s2X0ivsL2svDnWsdEjcb-72" value="+ OnExitState() : void" style="text;align=left;verticalAlign=top;spacingLeft=4;spacingRight=4;overflow=hidden;rotatable=0;points=[[0,0.5],[1,0.5]];portConstraint=eastwest;" parent="zkfFHV4jXpPFQw0GAbJ--0" vertex="1">
          <mxGeometry y="112" width="160" height="26" as="geometry" />
        </mxCell>
        <mxCell id="s2X0ivsL2svDnWsdEjcb-19" value="UnityEngine.&lt;span style=&quot;background-color: initial;&quot;&gt;MonoBehaviour&lt;/span&gt;" style="html=1;whiteSpace=wrap;fillColor=#cce5ff;strokeColor=#36393d;" parent="WIyWlLk6GJQsqaUBKTNV-1" vertex="1">
          <mxGeometry x="37.5" y="-170" width="205" height="50" as="geometry" />
        </mxCell>
        <mxCell id="s2X0ivsL2svDnWsdEjcb-48" value="&lt;&lt;interface&gt;&gt;&#xa;IState" style="swimlane;fontStyle=2;align=center;verticalAlign=middle;childLayout=stackLayout;horizontal=1;startSize=26;horizontalStack=0;resizeParent=1;resizeLast=0;collapsible=1;marginBottom=0;rounded=0;shadow=0;strokeWidth=1;fillColor=#fff2cc;strokeColor=#d6b656;fontSize=12;" parent="WIyWlLk6GJQsqaUBKTNV-1" vertex="1">
          <mxGeometry x="460" y="-60" width="160" height="138" as="geometry">
            <mxRectangle x="220" y="120" width="160" height="26" as="alternateBounds" />
          </mxGeometry>
        </mxCell>
        <mxCell id="s2X0ivsL2svDnWsdEjcb-52" value="" style="line;html=1;strokeWidth=1;align=left;verticalAlign=middle;spacingTop=-1;spacingLeft=3;spacingRight=3;rotatable=0;labelPosition=right;points=[];portConstraint=eastwest;" parent="s2X0ivsL2svDnWsdEjcb-48" vertex="1">
          <mxGeometry y="26" width="160" height="8" as="geometry" />
        </mxCell>
        <mxCell id="s2X0ivsL2svDnWsdEjcb-49" value="+ CanEnterState : bool" style="text;align=left;verticalAlign=top;spacingLeft=4;spacingRight=4;overflow=hidden;rotatable=0;points=[[0,0.5],[1,0.5]];portConstraint=eastwest;" parent="s2X0ivsL2svDnWsdEjcb-48" vertex="1">
          <mxGeometry y="34" width="160" height="26" as="geometry" />
        </mxCell>
        <mxCell id="s2X0ivsL2svDnWsdEjcb-50" value="+ CanExitState : bool" style="text;align=left;verticalAlign=top;spacingLeft=4;spacingRight=4;overflow=hidden;rotatable=0;points=[[0,0.5],[1,0.5]];portConstraint=eastwest;rounded=0;shadow=0;html=0;" parent="s2X0ivsL2svDnWsdEjcb-48" vertex="1">
          <mxGeometry y="60" width="160" height="26" as="geometry" />
        </mxCell>
        <mxCell id="s2X0ivsL2svDnWsdEjcb-53" value="+ OnEnterState() : void" style="text;align=left;verticalAlign=top;spacingLeft=4;spacingRight=4;overflow=hidden;rotatable=0;points=[[0,0.5],[1,0.5]];portConstraint=eastwest;" parent="s2X0ivsL2svDnWsdEjcb-48" vertex="1">
          <mxGeometry y="86" width="160" height="26" as="geometry" />
        </mxCell>
        <mxCell id="s2X0ivsL2svDnWsdEjcb-54" value="+ OnExotState() : void" style="text;align=left;verticalAlign=top;spacingLeft=4;spacingRight=4;overflow=hidden;rotatable=0;points=[[0,0.5],[1,0.5]];portConstraint=eastwest;" parent="s2X0ivsL2svDnWsdEjcb-48" vertex="1">
          <mxGeometry y="112" width="160" height="26" as="geometry" />
        </mxCell>
        <mxCell id="s2X0ivsL2svDnWsdEjcb-55" value="CharacterState" style="swimlane;fontStyle=2;align=center;verticalAlign=top;childLayout=stackLayout;horizontal=1;startSize=26;horizontalStack=0;resizeParent=1;resizeLast=0;collapsible=1;marginBottom=0;rounded=0;shadow=0;strokeWidth=1;" parent="WIyWlLk6GJQsqaUBKTNV-1" vertex="1">
          <mxGeometry x="-210" y="-32" width="180" height="190" as="geometry">
            <mxRectangle x="220" y="120" width="160" height="26" as="alternateBounds" />
          </mxGeometry>
        </mxCell>
        <mxCell id="s2X0ivsL2svDnWsdEjcb-56" value="+ StateMachine : class" style="text;align=left;verticalAlign=top;spacingLeft=4;spacingRight=4;overflow=hidden;rotatable=0;points=[[0,0.5],[1,0.5]];portConstraint=eastwest;" parent="s2X0ivsL2svDnWsdEjcb-55" vertex="1">
          <mxGeometry y="26" width="180" height="26" as="geometry" />
        </mxCell>
        <mxCell id="s2X0ivsL2svDnWsdEjcb-57" value="- _Character : Character" style="text;align=left;verticalAlign=top;spacingLeft=4;spacingRight=4;overflow=hidden;rotatable=0;points=[[0,0.5],[1,0.5]];portConstraint=eastwest;rounded=0;shadow=0;html=0;" parent="s2X0ivsL2svDnWsdEjcb-55" vertex="1">
          <mxGeometry y="52" width="180" height="26" as="geometry" />
        </mxCell>
        <mxCell id="s2X0ivsL2svDnWsdEjcb-58" value="" style="line;html=1;strokeWidth=1;align=left;verticalAlign=middle;spacingTop=-1;spacingLeft=3;spacingRight=3;rotatable=0;labelPosition=right;points=[];portConstraint=eastwest;" parent="s2X0ivsL2svDnWsdEjcb-55" vertex="1">
          <mxGeometry y="78" width="180" height="8" as="geometry" />
        </mxCell>
        <mxCell id="s2X0ivsL2svDnWsdEjcb-254" value="+ Character : Character" style="text;align=left;verticalAlign=top;spacingLeft=4;spacingRight=4;overflow=hidden;rotatable=0;points=[[0,0.5],[1,0.5]];portConstraint=eastwest;rounded=0;shadow=0;html=0;" parent="s2X0ivsL2svDnWsdEjcb-55" vertex="1">
          <mxGeometry y="86" width="180" height="26" as="geometry" />
        </mxCell>
        <mxCell id="s2X0ivsL2svDnWsdEjcb-80" value="+ Prioity : CharacterStatePriority" style="text;align=left;verticalAlign=top;spacingLeft=4;spacingRight=4;overflow=hidden;rotatable=0;points=[[0,0.5],[1,0.5]];portConstraint=eastwest;rounded=0;shadow=0;html=0;" parent="s2X0ivsL2svDnWsdEjcb-55" vertex="1">
          <mxGeometry y="112" width="180" height="26" as="geometry" />
        </mxCell>
        <mxCell id="s2X0ivsL2svDnWsdEjcb-81" value="+ CanInterrupSelf :  bool" style="text;align=left;verticalAlign=top;spacingLeft=4;spacingRight=4;overflow=hidden;rotatable=0;points=[[0,0.5],[1,0.5]];portConstraint=eastwest;rounded=0;shadow=0;html=0;" parent="s2X0ivsL2svDnWsdEjcb-55" vertex="1">
          <mxGeometry y="138" width="180" height="26" as="geometry" />
        </mxCell>
        <mxCell id="s2X0ivsL2svDnWsdEjcb-59" value="+ CanExitState : bool" style="text;align=left;verticalAlign=top;spacingLeft=4;spacingRight=4;overflow=hidden;rotatable=0;points=[[0,0.5],[1,0.5]];portConstraint=eastwest;fillColor=#d5e8d4;strokeColor=#82b366;" parent="s2X0ivsL2svDnWsdEjcb-55" vertex="1">
          <mxGeometry y="164" width="180" height="26" as="geometry" />
        </mxCell>
        <mxCell id="s2X0ivsL2svDnWsdEjcb-144" style="edgeStyle=orthogonalEdgeStyle;rounded=0;orthogonalLoop=1;jettySize=auto;html=1;endArrow=diamondThin;endFill=1;endSize=10;" parent="WIyWlLk6GJQsqaUBKTNV-1" source="s2X0ivsL2svDnWsdEjcb-192" target="s2X0ivsL2svDnWsdEjcb-56" edge="1">
          <mxGeometry relative="1" as="geometry">
            <mxPoint x="-229.99999999999955" y="200" as="sourcePoint" />
            <Array as="points">
              <mxPoint x="-250" y="698" />
              <mxPoint x="-250" y="10" />
            </Array>
          </mxGeometry>
        </mxCell>
        <mxCell id="s2X0ivsL2svDnWsdEjcb-145" value="组合" style="edgeLabel;html=1;align=center;verticalAlign=middle;resizable=0;points=[];" parent="s2X0ivsL2svDnWsdEjcb-144" vertex="1" connectable="0">
          <mxGeometry x="-0.344" y="1" relative="1" as="geometry">
            <mxPoint as="offset" />
          </mxGeometry>
        </mxCell>
        <mxCell id="s2X0ivsL2svDnWsdEjcb-71" value="namespace Animancer.FSM" style="shape=umlFrame;whiteSpace=wrap;html=1;pointerEvents=0;width=830;height=30;movable=1;resizable=1;rotatable=1;deletable=1;editable=1;locked=0;connectable=1;" parent="WIyWlLk6GJQsqaUBKTNV-1" vertex="1">
          <mxGeometry x="10" y="-100" width="830" height="980" as="geometry" />
        </mxCell>
        <mxCell id="s2X0ivsL2svDnWsdEjcb-82" value="&lt;&lt;enum&gt;&gt;&#xa;CharacterStatePriority" style="swimlane;fontStyle=2;align=center;verticalAlign=middle;childLayout=stackLayout;horizontal=1;startSize=26;horizontalStack=0;resizeParent=1;resizeLast=0;collapsible=1;marginBottom=0;rounded=0;shadow=0;strokeWidth=1;fillColor=#f8cecc;strokeColor=#b85450;" parent="WIyWlLk6GJQsqaUBKTNV-1" vertex="1">
          <mxGeometry x="-220" y="370" width="170" height="112" as="geometry">
            <mxRectangle x="220" y="120" width="160" height="26" as="alternateBounds" />
          </mxGeometry>
        </mxCell>
        <mxCell id="s2X0ivsL2svDnWsdEjcb-83" value="Low" style="text;align=left;verticalAlign=top;spacingLeft=4;spacingRight=4;overflow=hidden;rotatable=0;points=[[0,0.5],[1,0.5]];portConstraint=eastwest;" parent="s2X0ivsL2svDnWsdEjcb-82" vertex="1">
          <mxGeometry y="26" width="170" height="26" as="geometry" />
        </mxCell>
        <mxCell id="s2X0ivsL2svDnWsdEjcb-84" value="Medium" style="text;align=left;verticalAlign=top;spacingLeft=4;spacingRight=4;overflow=hidden;rotatable=0;points=[[0,0.5],[1,0.5]];portConstraint=eastwest;rounded=0;shadow=0;html=0;" parent="s2X0ivsL2svDnWsdEjcb-82" vertex="1">
          <mxGeometry y="52" width="170" height="26" as="geometry" />
        </mxCell>
        <mxCell id="s2X0ivsL2svDnWsdEjcb-89" value="High" style="text;align=left;verticalAlign=top;spacingLeft=4;spacingRight=4;overflow=hidden;rotatable=0;points=[[0,0.5],[1,0.5]];portConstraint=eastwest;rounded=0;shadow=0;html=0;" parent="s2X0ivsL2svDnWsdEjcb-82" vertex="1">
          <mxGeometry y="78" width="170" height="22" as="geometry" />
        </mxCell>
        <mxCell id="s2X0ivsL2svDnWsdEjcb-85" value="" style="line;html=1;strokeWidth=1;align=left;verticalAlign=middle;spacingTop=-1;spacingLeft=3;spacingRight=3;rotatable=0;labelPosition=right;points=[];portConstraint=eastwest;" parent="s2X0ivsL2svDnWsdEjcb-82" vertex="1">
          <mxGeometry y="100" width="170" height="8" as="geometry" />
        </mxCell>
        <mxCell id="s2X0ivsL2svDnWsdEjcb-88" value="namespace Animancer.Examples.StateMachines" style="shape=umlFrame;whiteSpace=wrap;html=1;pointerEvents=0;width=737;height=30;fillColor=#cce5ff;strokeColor=#36393d;" parent="WIyWlLk6GJQsqaUBKTNV-1" vertex="1">
          <mxGeometry x="-753.5" y="-100" width="737" height="790" as="geometry" />
        </mxCell>
        <mxCell id="s2X0ivsL2svDnWsdEjcb-139" style="edgeStyle=orthogonalEdgeStyle;rounded=0;orthogonalLoop=1;jettySize=auto;html=1;endArrow=blockThin;endFill=0;endSize=10;" parent="WIyWlLk6GJQsqaUBKTNV-1" source="s2X0ivsL2svDnWsdEjcb-98" target="s2X0ivsL2svDnWsdEjcb-133" edge="1">
          <mxGeometry relative="1" as="geometry" />
        </mxCell>
        <mxCell id="s2X0ivsL2svDnWsdEjcb-158" value="实现接口" style="edgeLabel;html=1;align=center;verticalAlign=middle;resizable=0;points=[];" parent="s2X0ivsL2svDnWsdEjcb-139" vertex="1" connectable="0">
          <mxGeometry x="-0.0625" relative="1" as="geometry">
            <mxPoint as="offset" />
          </mxGeometry>
        </mxCell>
        <mxCell id="s2X0ivsL2svDnWsdEjcb-140" style="edgeStyle=orthogonalEdgeStyle;rounded=0;orthogonalLoop=1;jettySize=auto;html=1;endArrow=open;endFill=0;dashed=1;dashPattern=8 8;" parent="WIyWlLk6GJQsqaUBKTNV-1" source="s2X0ivsL2svDnWsdEjcb-98" target="s2X0ivsL2svDnWsdEjcb-48" edge="1">
          <mxGeometry relative="1" as="geometry">
            <Array as="points">
              <mxPoint x="480" y="355" />
            </Array>
          </mxGeometry>
        </mxCell>
        <mxCell id="s2X0ivsL2svDnWsdEjcb-279" value="where TState" style="edgeLabel;html=1;align=center;verticalAlign=middle;resizable=0;points=[];" parent="s2X0ivsL2svDnWsdEjcb-140" vertex="1" connectable="0">
          <mxGeometry x="-0.4849" y="-2" relative="1" as="geometry">
            <mxPoint as="offset" />
          </mxGeometry>
        </mxCell>
        <mxCell id="s2X0ivsL2svDnWsdEjcb-98" value="StateMachine&lt;TState&gt;" style="swimlane;fontStyle=2;align=center;verticalAlign=top;childLayout=stackLayout;horizontal=1;startSize=26;horizontalStack=0;resizeParent=1;resizeLast=0;collapsible=1;marginBottom=0;rounded=0;shadow=0;strokeWidth=1;" parent="WIyWlLk6GJQsqaUBKTNV-1" vertex="1">
          <mxGeometry x="40" y="134.5" width="220" height="450" as="geometry">
            <mxRectangle x="220" y="120" width="160" height="26" as="alternateBounds" />
          </mxGeometry>
        </mxCell>
        <mxCell id="s2X0ivsL2svDnWsdEjcb-99" value="- _CurrentState : TState" style="text;align=left;verticalAlign=top;spacingLeft=4;spacingRight=4;overflow=hidden;rotatable=0;points=[[0,0.5],[1,0.5]];portConstraint=eastwest;" parent="s2X0ivsL2svDnWsdEjcb-98" vertex="1">
          <mxGeometry y="26" width="220" height="26" as="geometry" />
        </mxCell>
        <mxCell id="s2X0ivsL2svDnWsdEjcb-101" value="" style="line;html=1;strokeWidth=1;align=left;verticalAlign=middle;spacingTop=-1;spacingLeft=3;spacingRight=3;rotatable=0;labelPosition=right;points=[];portConstraint=eastwest;" parent="s2X0ivsL2svDnWsdEjcb-98" vertex="1">
          <mxGeometry y="52" width="220" height="8" as="geometry" />
        </mxCell>
        <mxCell id="s2X0ivsL2svDnWsdEjcb-260" value="+ StateMachine()" style="text;align=left;verticalAlign=top;spacingLeft=4;spacingRight=4;overflow=hidden;rotatable=0;points=[[0,0.5],[1,0.5]];portConstraint=eastwest;" parent="s2X0ivsL2svDnWsdEjcb-98" vertex="1">
          <mxGeometry y="60" width="220" height="26" as="geometry" />
        </mxCell>
        <mxCell id="s2X0ivsL2svDnWsdEjcb-261" value="+ StateMachine(TState)" style="text;align=left;verticalAlign=top;spacingLeft=4;spacingRight=4;overflow=hidden;rotatable=0;points=[[0,0.5],[1,0.5]];portConstraint=eastwest;" parent="s2X0ivsL2svDnWsdEjcb-98" vertex="1">
          <mxGeometry y="86" width="220" height="26" as="geometry" />
        </mxCell>
        <mxCell id="s2X0ivsL2svDnWsdEjcb-258" value="+ CurrentState : TState" style="text;align=left;verticalAlign=top;spacingLeft=4;spacingRight=4;overflow=hidden;rotatable=0;points=[[0,0.5],[1,0.5]];portConstraint=eastwest;" parent="s2X0ivsL2svDnWsdEjcb-98" vertex="1">
          <mxGeometry y="112" width="220" height="26" as="geometry" />
        </mxCell>
        <mxCell id="s2X0ivsL2svDnWsdEjcb-259" value="+ PreviousState : TState" style="text;align=left;verticalAlign=top;spacingLeft=4;spacingRight=4;overflow=hidden;rotatable=0;points=[[0,0.5],[1,0.5]];portConstraint=eastwest;rounded=0;shadow=0;html=0;" parent="s2X0ivsL2svDnWsdEjcb-98" vertex="1">
          <mxGeometry y="138" width="220" height="26" as="geometry" />
        </mxCell>
        <mxCell id="s2X0ivsL2svDnWsdEjcb-102" value="+ NextState : TState" style="text;align=left;verticalAlign=top;spacingLeft=4;spacingRight=4;overflow=hidden;rotatable=0;points=[[0,0.5],[1,0.5]];portConstraint=eastwest;" parent="s2X0ivsL2svDnWsdEjcb-98" vertex="1">
          <mxGeometry y="164" width="220" height="26" as="geometry" />
        </mxCell>
        <mxCell id="s2X0ivsL2svDnWsdEjcb-128" value="+ AllowNullStates : bool" style="text;align=left;verticalAlign=top;spacingLeft=4;spacingRight=4;overflow=hidden;rotatable=0;points=[[0,0.5],[1,0.5]];portConstraint=eastwest;" parent="s2X0ivsL2svDnWsdEjcb-98" vertex="1">
          <mxGeometry y="190" width="220" height="26" as="geometry" />
        </mxCell>
        <mxCell id="s2X0ivsL2svDnWsdEjcb-110" value="+ InitializeAfterDeserialize() : void" style="text;align=left;verticalAlign=top;spacingLeft=4;spacingRight=4;overflow=hidden;rotatable=0;points=[[0,0.5],[1,0.5]];portConstraint=eastwest;rounded=0;shadow=0;html=0;" parent="s2X0ivsL2svDnWsdEjcb-98" vertex="1">
          <mxGeometry y="216" width="220" height="26" as="geometry" />
        </mxCell>
        <mxCell id="s2X0ivsL2svDnWsdEjcb-111" value="+ CanSetState() : bool" style="text;align=left;verticalAlign=top;spacingLeft=4;spacingRight=4;overflow=hidden;rotatable=0;points=[[0,0.5],[1,0.5]];portConstraint=eastwest;rounded=0;shadow=0;html=0;" parent="s2X0ivsL2svDnWsdEjcb-98" vertex="1">
          <mxGeometry y="242" width="220" height="26" as="geometry" />
        </mxCell>
        <mxCell id="s2X0ivsL2svDnWsdEjcb-112" value="+ CanSetState(IList&lt;TState&gt;) : TState" style="text;align=left;verticalAlign=top;spacingLeft=4;spacingRight=4;overflow=hidden;rotatable=0;points=[[0,0.5],[1,0.5]];portConstraint=eastwest;rounded=0;shadow=0;html=0;" parent="s2X0ivsL2svDnWsdEjcb-98" vertex="1">
          <mxGeometry y="268" width="220" height="26" as="geometry" />
        </mxCell>
        <mxCell id="s2X0ivsL2svDnWsdEjcb-113" value="+ TrySetState(TState) : bool" style="text;align=left;verticalAlign=top;spacingLeft=4;spacingRight=4;overflow=hidden;rotatable=0;points=[[0,0.5],[1,0.5]];portConstraint=eastwest;rounded=0;shadow=0;html=0;" parent="s2X0ivsL2svDnWsdEjcb-98" vertex="1">
          <mxGeometry y="294" width="220" height="26" as="geometry" />
        </mxCell>
        <mxCell id="s2X0ivsL2svDnWsdEjcb-114" value="+ TrySetState(IList&lt;TState&gt;) : bool" style="text;align=left;verticalAlign=top;spacingLeft=4;spacingRight=4;overflow=hidden;rotatable=0;points=[[0,0.5],[1,0.5]];portConstraint=eastwest;rounded=0;shadow=0;html=0;" parent="s2X0ivsL2svDnWsdEjcb-98" vertex="1">
          <mxGeometry y="320" width="220" height="26" as="geometry" />
        </mxCell>
        <mxCell id="s2X0ivsL2svDnWsdEjcb-126" value="+ TryResetState(TState) : bool" style="text;align=left;verticalAlign=top;spacingLeft=4;spacingRight=4;overflow=hidden;rotatable=0;points=[[0,0.5],[1,0.5]];portConstraint=eastwest;rounded=0;shadow=0;html=0;" parent="s2X0ivsL2svDnWsdEjcb-98" vertex="1">
          <mxGeometry y="346" width="220" height="26" as="geometry" />
        </mxCell>
        <mxCell id="s2X0ivsL2svDnWsdEjcb-125" value="+ TryResetState(IList&lt;TState&gt;) : bool" style="text;align=left;verticalAlign=top;spacingLeft=4;spacingRight=4;overflow=hidden;rotatable=0;points=[[0,0.5],[1,0.5]];portConstraint=eastwest;rounded=0;shadow=0;html=0;" parent="s2X0ivsL2svDnWsdEjcb-98" vertex="1">
          <mxGeometry y="372" width="220" height="26" as="geometry" />
        </mxCell>
        <mxCell id="s2X0ivsL2svDnWsdEjcb-127" value="+ ForceSetState(TState) : void" style="text;align=left;verticalAlign=top;spacingLeft=4;spacingRight=4;overflow=hidden;rotatable=0;points=[[0,0.5],[1,0.5]];portConstraint=eastwest;rounded=0;shadow=0;html=0;" parent="s2X0ivsL2svDnWsdEjcb-98" vertex="1">
          <mxGeometry y="398" width="220" height="26" as="geometry" />
        </mxCell>
        <mxCell id="s2X0ivsL2svDnWsdEjcb-129" value="+ SetAllowNullStates(bool) : void" style="text;align=left;verticalAlign=top;spacingLeft=4;spacingRight=4;overflow=hidden;rotatable=0;points=[[0,0.5],[1,0.5]];portConstraint=eastwest;" parent="s2X0ivsL2svDnWsdEjcb-98" vertex="1">
          <mxGeometry y="424" width="220" height="26" as="geometry" />
        </mxCell>
        <mxCell id="s2X0ivsL2svDnWsdEjcb-163" style="edgeStyle=orthogonalEdgeStyle;rounded=0;orthogonalLoop=1;jettySize=auto;html=1;endArrow=open;endFill=0;dashed=1;dashPattern=8 8;" parent="WIyWlLk6GJQsqaUBKTNV-1" source="s2X0ivsL2svDnWsdEjcb-104" target="s2X0ivsL2svDnWsdEjcb-48" edge="1">
          <mxGeometry relative="1" as="geometry" />
        </mxCell>
        <mxCell id="s2X0ivsL2svDnWsdEjcb-164" value="where TState" style="edgeLabel;html=1;align=center;verticalAlign=middle;resizable=0;points=[];" parent="s2X0ivsL2svDnWsdEjcb-163" vertex="1" connectable="0">
          <mxGeometry x="-0.6315" y="-1" relative="1" as="geometry">
            <mxPoint as="offset" />
          </mxGeometry>
        </mxCell>
        <mxCell id="s2X0ivsL2svDnWsdEjcb-104" value="&lt;&lt;Struct&gt;&gt;&#xa;StateChange&lt;TState&gt;" style="swimlane;fontStyle=2;align=center;verticalAlign=middle;childLayout=stackLayout;horizontal=1;startSize=26;horizontalStack=0;resizeParent=1;resizeLast=0;collapsible=1;marginBottom=0;rounded=0;shadow=0;strokeWidth=1;fillColor=#d0cee2;strokeColor=#56517e;" parent="WIyWlLk6GJQsqaUBKTNV-1" vertex="1">
          <mxGeometry x="510" y="180" width="310" height="268" as="geometry">
            <mxRectangle x="220" y="120" width="160" height="26" as="alternateBounds" />
          </mxGeometry>
        </mxCell>
        <mxCell id="s2X0ivsL2svDnWsdEjcb-105" value="- _Current : StateChange&lt;TState&gt;" style="text;align=left;verticalAlign=top;spacingLeft=4;spacingRight=4;overflow=hidden;rotatable=0;points=[[0,0.5],[1,0.5]];portConstraint=eastwest;" parent="s2X0ivsL2svDnWsdEjcb-104" vertex="1">
          <mxGeometry y="26" width="310" height="26" as="geometry" />
        </mxCell>
        <mxCell id="s2X0ivsL2svDnWsdEjcb-106" value="- _StateMachine : StateMachine&lt;TState&gt;" style="text;align=left;verticalAlign=top;spacingLeft=4;spacingRight=4;overflow=hidden;rotatable=0;points=[[0,0.5],[1,0.5]];portConstraint=eastwest;rounded=0;shadow=0;html=0;" parent="s2X0ivsL2svDnWsdEjcb-104" vertex="1">
          <mxGeometry y="52" width="310" height="26" as="geometry" />
        </mxCell>
        <mxCell id="s2X0ivsL2svDnWsdEjcb-108" value="- _PreviousState : TState" style="text;align=left;verticalAlign=top;spacingLeft=4;spacingRight=4;overflow=hidden;rotatable=0;points=[[0,0.5],[1,0.5]];portConstraint=eastwest;" parent="s2X0ivsL2svDnWsdEjcb-104" vertex="1">
          <mxGeometry y="78" width="310" height="26" as="geometry" />
        </mxCell>
        <mxCell id="s2X0ivsL2svDnWsdEjcb-165" value="- _NextState : TState" style="text;align=left;verticalAlign=top;spacingLeft=4;spacingRight=4;overflow=hidden;rotatable=0;points=[[0,0.5],[1,0.5]];portConstraint=eastwest;" parent="s2X0ivsL2svDnWsdEjcb-104" vertex="1">
          <mxGeometry y="104" width="310" height="26" as="geometry" />
        </mxCell>
        <mxCell id="s2X0ivsL2svDnWsdEjcb-107" value="" style="line;html=1;strokeWidth=1;align=left;verticalAlign=middle;spacingTop=-1;spacingLeft=3;spacingRight=3;rotatable=0;labelPosition=right;points=[];portConstraint=eastwest;" parent="s2X0ivsL2svDnWsdEjcb-104" vertex="1">
          <mxGeometry y="130" width="310" height="8" as="geometry" />
        </mxCell>
        <mxCell id="s2X0ivsL2svDnWsdEjcb-166" value="+ StateChange(StateMachine&lt;TState&gt;, TState, TState)" style="text;align=left;verticalAlign=top;spacingLeft=4;spacingRight=4;overflow=hidden;rotatable=0;points=[[0,0.5],[1,0.5]];portConstraint=eastwest;fontStyle=0" parent="s2X0ivsL2svDnWsdEjcb-104" vertex="1">
          <mxGeometry y="138" width="310" height="26" as="geometry" />
        </mxCell>
        <mxCell id="s2X0ivsL2svDnWsdEjcb-109" value="+ IsActive : bool" style="text;align=left;verticalAlign=top;spacingLeft=4;spacingRight=4;overflow=hidden;rotatable=0;points=[[0,0.5],[1,0.5]];portConstraint=eastwest;" parent="s2X0ivsL2svDnWsdEjcb-104" vertex="1">
          <mxGeometry y="164" width="310" height="26" as="geometry" />
        </mxCell>
        <mxCell id="s2X0ivsL2svDnWsdEjcb-255" value="+ StateMachine : StateChange&lt;TState&gt;" style="text;align=left;verticalAlign=top;spacingLeft=4;spacingRight=4;overflow=hidden;rotatable=0;points=[[0,0.5],[1,0.5]];portConstraint=eastwest;" parent="s2X0ivsL2svDnWsdEjcb-104" vertex="1">
          <mxGeometry y="190" width="310" height="26" as="geometry" />
        </mxCell>
        <mxCell id="s2X0ivsL2svDnWsdEjcb-256" value="+ PreviousState : TState" style="text;align=left;verticalAlign=top;spacingLeft=4;spacingRight=4;overflow=hidden;rotatable=0;points=[[0,0.5],[1,0.5]];portConstraint=eastwest;" parent="s2X0ivsL2svDnWsdEjcb-104" vertex="1">
          <mxGeometry y="216" width="310" height="26" as="geometry" />
        </mxCell>
        <mxCell id="s2X0ivsL2svDnWsdEjcb-257" value="+ NextState : TState" style="text;align=left;verticalAlign=top;spacingLeft=4;spacingRight=4;overflow=hidden;rotatable=0;points=[[0,0.5],[1,0.5]];portConstraint=eastwest;" parent="s2X0ivsL2svDnWsdEjcb-104" vertex="1">
          <mxGeometry y="242" width="310" height="26" as="geometry" />
        </mxCell>
        <mxCell id="s2X0ivsL2svDnWsdEjcb-133" value="&lt;&lt;interface&gt;&gt;&#xa;IStateMachine" style="swimlane;fontStyle=2;align=center;verticalAlign=middle;childLayout=stackLayout;horizontal=1;startSize=26;horizontalStack=0;resizeParent=1;resizeLast=0;collapsible=1;marginBottom=0;rounded=0;shadow=0;strokeWidth=1;spacingTop=0;whiteSpace=wrap;fillColor=#fff2cc;strokeColor=#d6b656;" parent="WIyWlLk6GJQsqaUBKTNV-1" vertex="1">
          <mxGeometry x="430" y="490" width="200" height="346" as="geometry">
            <mxRectangle x="220" y="120" width="160" height="26" as="alternateBounds" />
          </mxGeometry>
        </mxCell>
        <mxCell id="s2X0ivsL2svDnWsdEjcb-136" value="" style="line;html=1;strokeWidth=1;align=left;verticalAlign=middle;spacingTop=-1;spacingLeft=3;spacingRight=3;rotatable=0;labelPosition=right;points=[];portConstraint=eastwest;" parent="s2X0ivsL2svDnWsdEjcb-133" vertex="1">
          <mxGeometry y="26" width="200" height="8" as="geometry" />
        </mxCell>
        <mxCell id="s2X0ivsL2svDnWsdEjcb-134" value="+ CurrentState : object" style="text;align=left;verticalAlign=top;spacingLeft=4;spacingRight=4;overflow=hidden;rotatable=0;points=[[0,0.5],[1,0.5]];portConstraint=eastwest;" parent="s2X0ivsL2svDnWsdEjcb-133" vertex="1">
          <mxGeometry y="34" width="200" height="26" as="geometry" />
        </mxCell>
        <mxCell id="s2X0ivsL2svDnWsdEjcb-135" value="+ PreviousState : object" style="text;align=left;verticalAlign=top;spacingLeft=4;spacingRight=4;overflow=hidden;rotatable=0;points=[[0,0.5],[1,0.5]];portConstraint=eastwest;rounded=0;shadow=0;html=0;" parent="s2X0ivsL2svDnWsdEjcb-133" vertex="1">
          <mxGeometry y="60" width="200" height="26" as="geometry" />
        </mxCell>
        <mxCell id="s2X0ivsL2svDnWsdEjcb-153" value="+ NextState : object" style="text;align=left;verticalAlign=top;spacingLeft=4;spacingRight=4;overflow=hidden;rotatable=0;points=[[0,0.5],[1,0.5]];portConstraint=eastwest;rounded=0;shadow=0;html=0;" parent="s2X0ivsL2svDnWsdEjcb-133" vertex="1">
          <mxGeometry y="86" width="200" height="26" as="geometry" />
        </mxCell>
        <mxCell id="s2X0ivsL2svDnWsdEjcb-162" value="+ AllowNullStates : bool" style="text;align=left;verticalAlign=top;spacingLeft=4;spacingRight=4;overflow=hidden;rotatable=0;points=[[0,0.5],[1,0.5]];portConstraint=eastwest;" parent="s2X0ivsL2svDnWsdEjcb-133" vertex="1">
          <mxGeometry y="112" width="200" height="26" as="geometry" />
        </mxCell>
        <mxCell id="s2X0ivsL2svDnWsdEjcb-137" value="+ CanSetState(object) : bool" style="text;align=left;verticalAlign=top;spacingLeft=4;spacingRight=4;overflow=hidden;rotatable=0;points=[[0,0.5],[1,0.5]];portConstraint=eastwest;" parent="s2X0ivsL2svDnWsdEjcb-133" vertex="1">
          <mxGeometry y="138" width="200" height="26" as="geometry" />
        </mxCell>
        <mxCell id="s2X0ivsL2svDnWsdEjcb-138" value="+ CanSetState(IList) : object" style="text;align=left;verticalAlign=top;spacingLeft=4;spacingRight=4;overflow=hidden;rotatable=0;points=[[0,0.5],[1,0.5]];portConstraint=eastwest;" parent="s2X0ivsL2svDnWsdEjcb-133" vertex="1">
          <mxGeometry y="164" width="200" height="26" as="geometry" />
        </mxCell>
        <mxCell id="s2X0ivsL2svDnWsdEjcb-154" value="+ TrySetState(object) : bool" style="text;align=left;verticalAlign=top;spacingLeft=4;spacingRight=4;overflow=hidden;rotatable=0;points=[[0,0.5],[1,0.5]];portConstraint=eastwest;" parent="s2X0ivsL2svDnWsdEjcb-133" vertex="1">
          <mxGeometry y="190" width="200" height="26" as="geometry" />
        </mxCell>
        <mxCell id="s2X0ivsL2svDnWsdEjcb-155" value="+ TrySetState(IList) : bool" style="text;align=left;verticalAlign=top;spacingLeft=4;spacingRight=4;overflow=hidden;rotatable=0;points=[[0,0.5],[1,0.5]];portConstraint=eastwest;" parent="s2X0ivsL2svDnWsdEjcb-133" vertex="1">
          <mxGeometry y="216" width="200" height="26" as="geometry" />
        </mxCell>
        <mxCell id="s2X0ivsL2svDnWsdEjcb-156" value="+ TryResetState(object) : bool" style="text;align=left;verticalAlign=top;spacingLeft=4;spacingRight=4;overflow=hidden;rotatable=0;points=[[0,0.5],[1,0.5]];portConstraint=eastwest;" parent="s2X0ivsL2svDnWsdEjcb-133" vertex="1">
          <mxGeometry y="242" width="200" height="26" as="geometry" />
        </mxCell>
        <mxCell id="s2X0ivsL2svDnWsdEjcb-157" value="+ TryResetState(object) : bool" style="text;align=left;verticalAlign=top;spacingLeft=4;spacingRight=4;overflow=hidden;rotatable=0;points=[[0,0.5],[1,0.5]];portConstraint=eastwest;" parent="s2X0ivsL2svDnWsdEjcb-133" vertex="1">
          <mxGeometry y="268" width="200" height="26" as="geometry" />
        </mxCell>
        <mxCell id="s2X0ivsL2svDnWsdEjcb-159" value="+ ForceSetState(object) : void" style="text;align=left;verticalAlign=top;spacingLeft=4;spacingRight=4;overflow=hidden;rotatable=0;points=[[0,0.5],[1,0.5]];portConstraint=eastwest;" parent="s2X0ivsL2svDnWsdEjcb-133" vertex="1">
          <mxGeometry y="294" width="200" height="26" as="geometry" />
        </mxCell>
        <mxCell id="s2X0ivsL2svDnWsdEjcb-161" value="+ SetAllowNummStates(bool) : void" style="text;align=left;verticalAlign=top;spacingLeft=4;spacingRight=4;overflow=hidden;rotatable=0;points=[[0,0.5],[1,0.5]];portConstraint=eastwest;" parent="s2X0ivsL2svDnWsdEjcb-133" vertex="1">
          <mxGeometry y="320" width="200" height="26" as="geometry" />
        </mxCell>
        <mxCell id="s2X0ivsL2svDnWsdEjcb-168" value="Hero" style="ellipse;shape=umlEntity;whiteSpace=wrap;html=1;" parent="WIyWlLk6GJQsqaUBKTNV-1" vertex="1">
          <mxGeometry x="-680" y="246" width="80" height="80" as="geometry" />
        </mxCell>
        <mxCell id="s2X0ivsL2svDnWsdEjcb-176" style="edgeStyle=orthogonalEdgeStyle;rounded=0;orthogonalLoop=1;jettySize=auto;html=1;endArrow=blockThin;endFill=0;endSize=10;" parent="WIyWlLk6GJQsqaUBKTNV-1" source="s2X0ivsL2svDnWsdEjcb-169" target="s2X0ivsL2svDnWsdEjcb-19" edge="1">
          <mxGeometry relative="1" as="geometry">
            <Array as="points">
              <mxPoint x="-390" y="-205" />
            </Array>
          </mxGeometry>
        </mxCell>
        <mxCell id="s2X0ivsL2svDnWsdEjcb-223" value="继承" style="edgeLabel;html=1;align=center;verticalAlign=middle;resizable=0;points=[];" parent="s2X0ivsL2svDnWsdEjcb-176" vertex="1" connectable="0">
          <mxGeometry x="0.0486" y="-2" relative="1" as="geometry">
            <mxPoint as="offset" />
          </mxGeometry>
        </mxCell>
        <mxCell id="s2X0ivsL2svDnWsdEjcb-169" value="Character" style="swimlane;fontStyle=1;align=center;verticalAlign=top;childLayout=stackLayout;horizontal=1;startSize=26;horizontalStack=0;resizeParent=1;resizeLast=0;collapsible=1;marginBottom=0;rounded=0;shadow=0;strokeWidth=1;fillColor=#cce5ff;strokeColor=#000000;" parent="WIyWlLk6GJQsqaUBKTNV-1" vertex="1">
          <mxGeometry x="-500" y="-32" width="220" height="182" as="geometry">
            <mxRectangle x="220" y="120" width="160" height="26" as="alternateBounds" />
          </mxGeometry>
        </mxCell>
        <mxCell id="s2X0ivsL2svDnWsdEjcb-170" value="- _Animancer : AnimancerComponent" style="text;align=left;verticalAlign=top;spacingLeft=4;spacingRight=4;overflow=hidden;rotatable=0;points=[[0,0.5],[1,0.5]];portConstraint=eastwest;" parent="s2X0ivsL2svDnWsdEjcb-169" vertex="1">
          <mxGeometry y="26" width="220" height="26" as="geometry" />
        </mxCell>
        <mxCell id="s2X0ivsL2svDnWsdEjcb-171" value="- _StateMachine : StateMachine" style="text;align=left;verticalAlign=top;spacingLeft=4;spacingRight=4;overflow=hidden;rotatable=0;points=[[0,0.5],[1,0.5]];portConstraint=eastwest;rounded=0;shadow=0;html=0;" parent="s2X0ivsL2svDnWsdEjcb-169" vertex="1">
          <mxGeometry y="52" width="220" height="26" as="geometry" />
        </mxCell>
        <mxCell id="s2X0ivsL2svDnWsdEjcb-224" value="- Health : HealthPool" style="text;align=left;verticalAlign=top;spacingLeft=4;spacingRight=4;overflow=hidden;rotatable=0;points=[[0,0.5],[1,0.5]];portConstraint=eastwest;rounded=0;shadow=0;html=0;whiteSpace=wrap;" parent="s2X0ivsL2svDnWsdEjcb-169" vertex="1">
          <mxGeometry y="78" width="220" height="22" as="geometry" />
        </mxCell>
        <mxCell id="s2X0ivsL2svDnWsdEjcb-173" value="" style="line;html=1;strokeWidth=1;align=left;verticalAlign=middle;spacingTop=-1;spacingLeft=3;spacingRight=3;rotatable=0;labelPosition=right;points=[];portConstraint=eastwest;" parent="s2X0ivsL2svDnWsdEjcb-169" vertex="1">
          <mxGeometry y="100" width="220" height="8" as="geometry" />
        </mxCell>
        <mxCell id="s2X0ivsL2svDnWsdEjcb-247" value="+ Animancer : AnimancerComponent" style="text;align=left;verticalAlign=top;spacingLeft=4;spacingRight=4;overflow=hidden;rotatable=0;points=[[0,0.5],[1,0.5]];portConstraint=eastwest;" parent="s2X0ivsL2svDnWsdEjcb-169" vertex="1">
          <mxGeometry y="108" width="220" height="26" as="geometry" />
        </mxCell>
        <mxCell id="s2X0ivsL2svDnWsdEjcb-174" value="- Awake() : void" style="text;align=left;verticalAlign=top;spacingLeft=4;spacingRight=4;overflow=hidden;rotatable=0;points=[[0,0.5],[1,0.5]];portConstraint=eastwest;rounded=0;shadow=0;html=0;whiteSpace=wrap;" parent="s2X0ivsL2svDnWsdEjcb-169" vertex="1">
          <mxGeometry y="134" width="220" height="22" as="geometry" />
        </mxCell>
        <mxCell id="s2X0ivsL2svDnWsdEjcb-248" value="+ StateMachine : StateMachine" style="text;align=left;verticalAlign=top;spacingLeft=4;spacingRight=4;overflow=hidden;rotatable=0;points=[[0,0.5],[1,0.5]];portConstraint=eastwest;rounded=0;shadow=0;html=0;" parent="s2X0ivsL2svDnWsdEjcb-169" vertex="1">
          <mxGeometry y="156" width="220" height="26" as="geometry" />
        </mxCell>
        <mxCell id="s2X0ivsL2svDnWsdEjcb-175" value="" style="endArrow=block;dashed=1;endFill=0;endSize=12;html=1;rounded=0;" parent="WIyWlLk6GJQsqaUBKTNV-1" source="s2X0ivsL2svDnWsdEjcb-169" target="s2X0ivsL2svDnWsdEjcb-168" edge="1">
          <mxGeometry width="160" relative="1" as="geometry">
            <mxPoint x="-700" y="-20" as="sourcePoint" />
            <mxPoint x="-540" y="-20" as="targetPoint" />
          </mxGeometry>
        </mxCell>
        <mxCell id="s2X0ivsL2svDnWsdEjcb-226" value="挂载" style="edgeLabel;html=1;align=center;verticalAlign=middle;resizable=0;points=[];" parent="s2X0ivsL2svDnWsdEjcb-175" vertex="1" connectable="0">
          <mxGeometry x="0.0266" y="-1" relative="1" as="geometry">
            <mxPoint as="offset" />
          </mxGeometry>
        </mxCell>
        <mxCell id="s2X0ivsL2svDnWsdEjcb-192" value="WithDefault" style="swimlane;fontStyle=2;align=center;verticalAlign=top;childLayout=stackLayout;horizontal=1;startSize=26;horizontalStack=0;resizeParent=1;resizeLast=0;collapsible=1;marginBottom=0;rounded=0;shadow=0;strokeWidth=1;" parent="WIyWlLk6GJQsqaUBKTNV-1" vertex="1">
          <mxGeometry x="40" y="630" width="220" height="216" as="geometry">
            <mxRectangle x="220" y="120" width="160" height="26" as="alternateBounds" />
          </mxGeometry>
        </mxCell>
        <mxCell id="s2X0ivsL2svDnWsdEjcb-210" value="继承" style="endArrow=blockThin;endSize=10;endFill=0;html=1;rounded=0;" parent="s2X0ivsL2svDnWsdEjcb-192" target="s2X0ivsL2svDnWsdEjcb-98" edge="1">
          <mxGeometry width="160" relative="1" as="geometry">
            <mxPoint x="100" as="sourcePoint" />
            <mxPoint x="260" as="targetPoint" />
          </mxGeometry>
        </mxCell>
        <mxCell id="s2X0ivsL2svDnWsdEjcb-193" value="+ DefaultState : TState" style="text;align=left;verticalAlign=top;spacingLeft=4;spacingRight=4;overflow=hidden;rotatable=0;points=[[0,0.5],[1,0.5]];portConstraint=eastwest;" parent="s2X0ivsL2svDnWsdEjcb-192" vertex="1">
          <mxGeometry y="26" width="220" height="26" as="geometry" />
        </mxCell>
        <mxCell id="s2X0ivsL2svDnWsdEjcb-194" value="+ ForceSetDefaultState : Action" style="text;align=left;verticalAlign=top;spacingLeft=4;spacingRight=4;overflow=hidden;rotatable=0;points=[[0,0.5],[1,0.5]];portConstraint=eastwest;rounded=0;shadow=0;html=0;" parent="s2X0ivsL2svDnWsdEjcb-192" vertex="1">
          <mxGeometry y="52" width="220" height="26" as="geometry" />
        </mxCell>
        <mxCell id="s2X0ivsL2svDnWsdEjcb-197" value="" style="line;html=1;strokeWidth=1;align=left;verticalAlign=middle;spacingTop=-1;spacingLeft=3;spacingRight=3;rotatable=0;labelPosition=right;points=[];portConstraint=eastwest;" parent="s2X0ivsL2svDnWsdEjcb-192" vertex="1">
          <mxGeometry y="78" width="220" height="8" as="geometry" />
        </mxCell>
        <mxCell id="s2X0ivsL2svDnWsdEjcb-195" value="+ WithDefault()" style="text;align=left;verticalAlign=top;spacingLeft=4;spacingRight=4;overflow=hidden;rotatable=0;points=[[0,0.5],[1,0.5]];portConstraint=eastwest;" parent="s2X0ivsL2svDnWsdEjcb-192" vertex="1">
          <mxGeometry y="86" width="220" height="26" as="geometry" />
        </mxCell>
        <mxCell id="s2X0ivsL2svDnWsdEjcb-208" value="+ WithDefault(TState)" style="text;align=left;verticalAlign=top;spacingLeft=4;spacingRight=4;overflow=hidden;rotatable=0;points=[[0,0.5],[1,0.5]];portConstraint=eastwest;" parent="s2X0ivsL2svDnWsdEjcb-192" vertex="1">
          <mxGeometry y="112" width="220" height="26" as="geometry" />
        </mxCell>
        <mxCell id="s2X0ivsL2svDnWsdEjcb-220" value="+ InitializeAfterDeserialize() : void" style="text;align=left;verticalAlign=top;spacingLeft=4;spacingRight=4;overflow=hidden;rotatable=0;points=[[0,0.5],[1,0.5]];portConstraint=eastwest;fillColor=#d5e8d4;strokeColor=#82b366;" parent="s2X0ivsL2svDnWsdEjcb-192" vertex="1">
          <mxGeometry y="138" width="220" height="26" as="geometry" />
        </mxCell>
        <mxCell id="s2X0ivsL2svDnWsdEjcb-221" value="+ TrySetDefaultState() : bool" style="text;align=left;verticalAlign=top;spacingLeft=4;spacingRight=4;overflow=hidden;rotatable=0;points=[[0,0.5],[1,0.5]];portConstraint=eastwest;" parent="s2X0ivsL2svDnWsdEjcb-192" vertex="1">
          <mxGeometry y="164" width="220" height="26" as="geometry" />
        </mxCell>
        <mxCell id="s2X0ivsL2svDnWsdEjcb-222" value="+ TryResetDefaultState() : bool" style="text;align=left;verticalAlign=top;spacingLeft=4;spacingRight=4;overflow=hidden;rotatable=0;points=[[0,0.5],[1,0.5]];portConstraint=eastwest;" parent="s2X0ivsL2svDnWsdEjcb-192" vertex="1">
          <mxGeometry y="190" width="220" height="26" as="geometry" />
        </mxCell>
        <mxCell id="s2X0ivsL2svDnWsdEjcb-209" value="&lt;span style=&quot;background-color: rgb(255, 242, 204); font-size: 26px;&quot;&gt;黄色：接口&lt;/span&gt;&lt;div style=&quot;font-size: 26px;&quot;&gt;&lt;span style=&quot;background-color: rgb(248, 206, 204); font-size: 26px;&quot;&gt;红色：枚举&lt;/span&gt;&lt;/div&gt;&lt;div style=&quot;font-size: 26px;&quot;&gt;&lt;font style=&quot;background-color: rgb(208, 206, 226); font-size: 26px;&quot;&gt;灰色：结构体&lt;/font&gt;&lt;/div&gt;&lt;div style=&quot;font-size: 26px;&quot;&gt;&lt;font style=&quot;font-size: 26px; background-color: rgb(204, 229, 255);&quot;&gt;蓝色：可挂载&lt;/font&gt;&lt;/div&gt;&lt;div style=&quot;font-size: 26px;&quot;&gt;&lt;font style=&quot;font-size: 26px; background-color: rgb(213, 232, 212);&quot;&gt;绿色：重写父类的属性&lt;/font&gt;&lt;/div&gt;" style="text;html=1;align=left;verticalAlign=middle;resizable=0;points=[];autosize=1;strokeColor=none;fillColor=none;horizontal=1;fontSize=26;" parent="WIyWlLk6GJQsqaUBKTNV-1" vertex="1">
          <mxGeometry x="-720" y="495" width="280" height="170" as="geometry" />
        </mxCell>
        <mxCell id="s2X0ivsL2svDnWsdEjcb-215" value="继承" style="endArrow=blockThin;endSize=10;endFill=0;html=1;rounded=0;" parent="WIyWlLk6GJQsqaUBKTNV-1" source="zkfFHV4jXpPFQw0GAbJ--0" target="s2X0ivsL2svDnWsdEjcb-19" edge="1">
          <mxGeometry width="160" relative="1" as="geometry">
            <mxPoint x="131.94887848527992" y="153" as="sourcePoint" />
            <mxPoint x="-88.05112151472007" y="125" as="targetPoint" />
          </mxGeometry>
        </mxCell>
        <mxCell id="s2X0ivsL2svDnWsdEjcb-218" value="继承" style="endArrow=blockThin;endSize=10;endFill=0;html=1;rounded=0;" parent="WIyWlLk6GJQsqaUBKTNV-1" source="s2X0ivsL2svDnWsdEjcb-55" target="zkfFHV4jXpPFQw0GAbJ--0" edge="1">
          <mxGeometry width="160" relative="1" as="geometry">
            <mxPoint x="-90" y="18" as="sourcePoint" />
            <mxPoint x="-87" y="-70" as="targetPoint" />
          </mxGeometry>
        </mxCell>
        <mxCell id="s2X0ivsL2svDnWsdEjcb-219" value="实现接口" style="endArrow=blockThin;endSize=10;endFill=0;html=1;rounded=0;" parent="WIyWlLk6GJQsqaUBKTNV-1" source="zkfFHV4jXpPFQw0GAbJ--0" target="s2X0ivsL2svDnWsdEjcb-48" edge="1">
          <mxGeometry width="160" relative="1" as="geometry">
            <mxPoint x="460" y="28" as="sourcePoint" />
            <mxPoint x="463" y="-60" as="targetPoint" />
          </mxGeometry>
        </mxCell>
        <mxCell id="s2X0ivsL2svDnWsdEjcb-227" value="IdleState" style="swimlane;fontStyle=1;align=center;verticalAlign=top;childLayout=stackLayout;horizontal=1;startSize=26;horizontalStack=0;resizeParent=1;resizeLast=0;collapsible=1;marginBottom=0;rounded=0;shadow=0;strokeWidth=1;fillColor=#cce5ff;strokeColor=#36393d;" parent="WIyWlLk6GJQsqaUBKTNV-1" vertex="1">
          <mxGeometry x="-485" y="186" width="190" height="90" as="geometry">
            <mxRectangle x="220" y="120" width="160" height="26" as="alternateBounds" />
          </mxGeometry>
        </mxCell>
        <mxCell id="s2X0ivsL2svDnWsdEjcb-228" value="- _Animation : ClipTransition" style="text;align=left;verticalAlign=top;spacingLeft=4;spacingRight=4;overflow=hidden;rotatable=0;points=[[0,0.5],[1,0.5]];portConstraint=eastwest;" parent="s2X0ivsL2svDnWsdEjcb-227" vertex="1">
          <mxGeometry y="26" width="190" height="26" as="geometry" />
        </mxCell>
        <mxCell id="s2X0ivsL2svDnWsdEjcb-232" value="" style="line;html=1;strokeWidth=1;align=left;verticalAlign=middle;spacingTop=-1;spacingLeft=3;spacingRight=3;rotatable=0;labelPosition=right;points=[];portConstraint=eastwest;" parent="s2X0ivsL2svDnWsdEjcb-227" vertex="1">
          <mxGeometry y="52" width="190" height="8" as="geometry" />
        </mxCell>
        <mxCell id="s2X0ivsL2svDnWsdEjcb-233" value="- OnEnable() : void" style="text;align=left;verticalAlign=top;spacingLeft=4;spacingRight=4;overflow=hidden;rotatable=0;points=[[0,0.5],[1,0.5]];portConstraint=eastwest;" parent="s2X0ivsL2svDnWsdEjcb-227" vertex="1">
          <mxGeometry y="60" width="190" height="26" as="geometry" />
        </mxCell>
        <mxCell id="s2X0ivsL2svDnWsdEjcb-234" value="继承" style="endArrow=blockThin;endSize=10;endFill=0;html=1;rounded=0;" parent="WIyWlLk6GJQsqaUBKTNV-1" source="s2X0ivsL2svDnWsdEjcb-227" target="s2X0ivsL2svDnWsdEjcb-55" edge="1">
          <mxGeometry width="160" relative="1" as="geometry">
            <mxPoint x="-460" y="158" as="sourcePoint" />
            <mxPoint x="-457" y="70" as="targetPoint" />
          </mxGeometry>
        </mxCell>
        <mxCell id="s2X0ivsL2svDnWsdEjcb-235" value="" style="endArrow=block;dashed=1;endFill=0;endSize=12;html=1;rounded=0;" parent="WIyWlLk6GJQsqaUBKTNV-1" source="s2X0ivsL2svDnWsdEjcb-227" target="s2X0ivsL2svDnWsdEjcb-168" edge="1">
          <mxGeometry width="160" relative="1" as="geometry">
            <mxPoint x="-429.8610085060038" y="140.39317880498174" as="sourcePoint" />
            <mxPoint x="-569.8610085060038" y="152.39317880498174" as="targetPoint" />
          </mxGeometry>
        </mxCell>
        <mxCell id="s2X0ivsL2svDnWsdEjcb-236" value="挂载" style="edgeLabel;html=1;align=center;verticalAlign=middle;resizable=0;points=[];" parent="s2X0ivsL2svDnWsdEjcb-235" vertex="1" connectable="0">
          <mxGeometry x="0.0266" y="-1" relative="1" as="geometry">
            <mxPoint as="offset" />
          </mxGeometry>
        </mxCell>
        <mxCell id="s2X0ivsL2svDnWsdEjcb-237" value="ActionState" style="swimlane;fontStyle=1;align=center;verticalAlign=top;childLayout=stackLayout;horizontal=1;startSize=26;horizontalStack=0;resizeParent=1;resizeLast=0;collapsible=1;marginBottom=0;rounded=0;shadow=0;strokeWidth=1;fillColor=#cce5ff;strokeColor=#36393d;" parent="WIyWlLk6GJQsqaUBKTNV-1" vertex="1">
          <mxGeometry x="-480" y="326" width="190" height="164" as="geometry">
            <mxRectangle x="220" y="120" width="160" height="26" as="alternateBounds" />
          </mxGeometry>
        </mxCell>
        <mxCell id="s2X0ivsL2svDnWsdEjcb-238" value="- _Animation : ClipTransition" style="text;align=left;verticalAlign=top;spacingLeft=4;spacingRight=4;overflow=hidden;rotatable=0;points=[[0,0.5],[1,0.5]];portConstraint=eastwest;" parent="s2X0ivsL2svDnWsdEjcb-237" vertex="1">
          <mxGeometry y="26" width="190" height="26" as="geometry" />
        </mxCell>
        <mxCell id="s2X0ivsL2svDnWsdEjcb-239" value="" style="line;html=1;strokeWidth=1;align=left;verticalAlign=middle;spacingTop=-1;spacingLeft=3;spacingRight=3;rotatable=0;labelPosition=right;points=[];portConstraint=eastwest;" parent="s2X0ivsL2svDnWsdEjcb-237" vertex="1">
          <mxGeometry y="52" width="190" height="8" as="geometry" />
        </mxCell>
        <mxCell id="s2X0ivsL2svDnWsdEjcb-242" value="- Priority : CharacterStatePriority" style="text;align=left;verticalAlign=top;spacingLeft=4;spacingRight=4;overflow=hidden;rotatable=0;points=[[0,0.5],[1,0.5]];portConstraint=eastwest;" parent="s2X0ivsL2svDnWsdEjcb-237" vertex="1">
          <mxGeometry y="60" width="190" height="26" as="geometry" />
        </mxCell>
        <mxCell id="s2X0ivsL2svDnWsdEjcb-243" value="- CanInterrupSelf : bool" style="text;align=left;verticalAlign=top;spacingLeft=4;spacingRight=4;overflow=hidden;rotatable=0;points=[[0,0.5],[1,0.5]];portConstraint=eastwest;fillColor=#d5e8d4;strokeColor=#82b366;" parent="s2X0ivsL2svDnWsdEjcb-237" vertex="1">
          <mxGeometry y="86" width="190" height="26" as="geometry" />
        </mxCell>
        <mxCell id="s2X0ivsL2svDnWsdEjcb-241" value="- Awake() : void" style="text;align=left;verticalAlign=top;spacingLeft=4;spacingRight=4;overflow=hidden;rotatable=0;points=[[0,0.5],[1,0.5]];portConstraint=eastwest;" parent="s2X0ivsL2svDnWsdEjcb-237" vertex="1">
          <mxGeometry y="112" width="190" height="26" as="geometry" />
        </mxCell>
        <mxCell id="s2X0ivsL2svDnWsdEjcb-240" value="- OnEnable() : void" style="text;align=left;verticalAlign=top;spacingLeft=4;spacingRight=4;overflow=hidden;rotatable=0;points=[[0,0.5],[1,0.5]];portConstraint=eastwest;" parent="s2X0ivsL2svDnWsdEjcb-237" vertex="1">
          <mxGeometry y="138" width="190" height="26" as="geometry" />
        </mxCell>
        <mxCell id="s2X0ivsL2svDnWsdEjcb-244" value="继承" style="endArrow=blockThin;endSize=10;endFill=0;html=1;rounded=0;" parent="WIyWlLk6GJQsqaUBKTNV-1" source="s2X0ivsL2svDnWsdEjcb-237" target="s2X0ivsL2svDnWsdEjcb-55" edge="1">
          <mxGeometry width="160" relative="1" as="geometry">
            <mxPoint x="-320" y="368" as="sourcePoint" />
            <mxPoint x="-317" y="280" as="targetPoint" />
          </mxGeometry>
        </mxCell>
        <mxCell id="s2X0ivsL2svDnWsdEjcb-245" value="" style="endArrow=block;dashed=1;endFill=0;endSize=12;html=1;rounded=0;" parent="WIyWlLk6GJQsqaUBKTNV-1" source="s2X0ivsL2svDnWsdEjcb-237" target="s2X0ivsL2svDnWsdEjcb-168" edge="1">
          <mxGeometry width="160" relative="1" as="geometry">
            <mxPoint x="-579.8610085060038" y="190.39317880498174" as="sourcePoint" />
            <mxPoint x="-719.8610085060038" y="202.39317880498174" as="targetPoint" />
          </mxGeometry>
        </mxCell>
        <mxCell id="s2X0ivsL2svDnWsdEjcb-246" value="挂载" style="edgeLabel;html=1;align=center;verticalAlign=middle;resizable=0;points=[];" parent="s2X0ivsL2svDnWsdEjcb-245" vertex="1" connectable="0">
          <mxGeometry x="0.0266" y="-1" relative="1" as="geometry">
            <mxPoint as="offset" />
          </mxGeometry>
        </mxCell>
        <mxCell id="s2X0ivsL2svDnWsdEjcb-250" value="HealthPool" style="swimlane;fontStyle=1;align=center;verticalAlign=top;childLayout=stackLayout;horizontal=1;startSize=26;horizontalStack=0;resizeParent=1;resizeLast=0;collapsible=1;marginBottom=0;rounded=0;shadow=0;strokeWidth=1;" parent="WIyWlLk6GJQsqaUBKTNV-1" vertex="1">
          <mxGeometry x="-730" y="381" width="190" height="90" as="geometry">
            <mxRectangle x="220" y="120" width="160" height="26" as="alternateBounds" />
          </mxGeometry>
        </mxCell>
        <mxCell id="s2X0ivsL2svDnWsdEjcb-251" value="+ OnHitReceived : event Action" style="text;align=left;verticalAlign=top;spacingLeft=4;spacingRight=4;overflow=hidden;rotatable=0;points=[[0,0.5],[1,0.5]];portConstraint=eastwest;" parent="s2X0ivsL2svDnWsdEjcb-250" vertex="1">
          <mxGeometry y="26" width="190" height="26" as="geometry" />
        </mxCell>
        <mxCell id="s2X0ivsL2svDnWsdEjcb-252" value="" style="line;html=1;strokeWidth=1;align=left;verticalAlign=middle;spacingTop=-1;spacingLeft=3;spacingRight=3;rotatable=0;labelPosition=right;points=[];portConstraint=eastwest;" parent="s2X0ivsL2svDnWsdEjcb-250" vertex="1">
          <mxGeometry y="52" width="190" height="8" as="geometry" />
        </mxCell>
        <mxCell id="s2X0ivsL2svDnWsdEjcb-253" value="+ Interact() : void" style="text;align=left;verticalAlign=top;spacingLeft=4;spacingRight=4;overflow=hidden;rotatable=0;points=[[0,0.5],[1,0.5]];portConstraint=eastwest;" parent="s2X0ivsL2svDnWsdEjcb-250" vertex="1">
          <mxGeometry y="60" width="190" height="26" as="geometry" />
        </mxCell>
        <mxCell id="s2X0ivsL2svDnWsdEjcb-265" value="BasicCharacterBrain" style="swimlane;fontStyle=1;align=center;verticalAlign=top;childLayout=stackLayout;horizontal=1;startSize=26;horizontalStack=0;resizeParent=1;resizeLast=0;collapsible=1;marginBottom=0;rounded=0;shadow=0;strokeWidth=1;fillColor=#cce5ff;strokeColor=#36393d;" parent="WIyWlLk6GJQsqaUBKTNV-1" vertex="1">
          <mxGeometry x="-730" y="-32" width="190" height="190" as="geometry">
            <mxRectangle x="220" y="120" width="160" height="26" as="alternateBounds" />
          </mxGeometry>
        </mxCell>
        <mxCell id="s2X0ivsL2svDnWsdEjcb-266" value="- _Character : Character" style="text;align=left;verticalAlign=top;spacingLeft=4;spacingRight=4;overflow=hidden;rotatable=0;points=[[0,0.5],[1,0.5]];portConstraint=eastwest;" parent="s2X0ivsL2svDnWsdEjcb-265" vertex="1">
          <mxGeometry y="26" width="190" height="26" as="geometry" />
        </mxCell>
        <mxCell id="s2X0ivsL2svDnWsdEjcb-268" value="- CharacterState _Move" style="text;align=left;verticalAlign=top;spacingLeft=4;spacingRight=4;overflow=hidden;rotatable=0;points=[[0,0.5],[1,0.5]];portConstraint=eastwest;" parent="s2X0ivsL2svDnWsdEjcb-265" vertex="1">
          <mxGeometry y="52" width="190" height="26" as="geometry" />
        </mxCell>
        <mxCell id="s2X0ivsL2svDnWsdEjcb-269" value="- CharacterState _Action" style="text;align=left;verticalAlign=top;spacingLeft=4;spacingRight=4;overflow=hidden;rotatable=0;points=[[0,0.5],[1,0.5]];portConstraint=eastwest;" parent="s2X0ivsL2svDnWsdEjcb-265" vertex="1">
          <mxGeometry y="78" width="190" height="26" as="geometry" />
        </mxCell>
        <mxCell id="s2X0ivsL2svDnWsdEjcb-267" value="" style="line;html=1;strokeWidth=1;align=left;verticalAlign=middle;spacingTop=-1;spacingLeft=3;spacingRight=3;rotatable=0;labelPosition=right;points=[];portConstraint=eastwest;" parent="s2X0ivsL2svDnWsdEjcb-265" vertex="1">
          <mxGeometry y="104" width="190" height="8" as="geometry" />
        </mxCell>
        <mxCell id="s2X0ivsL2svDnWsdEjcb-270" value="- Update() : void" style="text;align=left;verticalAlign=top;spacingLeft=4;spacingRight=4;overflow=hidden;rotatable=0;points=[[0,0.5],[1,0.5]];portConstraint=eastwest;" parent="s2X0ivsL2svDnWsdEjcb-265" vertex="1">
          <mxGeometry y="112" width="190" height="26" as="geometry" />
        </mxCell>
        <mxCell id="s2X0ivsL2svDnWsdEjcb-271" value="- UpdateMovement() : void" style="text;align=left;verticalAlign=top;spacingLeft=4;spacingRight=4;overflow=hidden;rotatable=0;points=[[0,0.5],[1,0.5]];portConstraint=eastwest;" parent="s2X0ivsL2svDnWsdEjcb-265" vertex="1">
          <mxGeometry y="138" width="190" height="26" as="geometry" />
        </mxCell>
        <mxCell id="s2X0ivsL2svDnWsdEjcb-272" value="- UpdateAction() : void" style="text;align=left;verticalAlign=top;spacingLeft=4;spacingRight=4;overflow=hidden;rotatable=0;points=[[0,0.5],[1,0.5]];portConstraint=eastwest;" parent="s2X0ivsL2svDnWsdEjcb-265" vertex="1">
          <mxGeometry y="164" width="190" height="26" as="geometry" />
        </mxCell>
        <mxCell id="s2X0ivsL2svDnWsdEjcb-273" value="" style="endArrow=block;dashed=1;endFill=0;endSize=12;html=1;rounded=0;" parent="WIyWlLk6GJQsqaUBKTNV-1" source="s2X0ivsL2svDnWsdEjcb-265" target="s2X0ivsL2svDnWsdEjcb-168" edge="1">
          <mxGeometry width="160" relative="1" as="geometry">
            <mxPoint x="-470" y="343" as="sourcePoint" />
            <mxPoint x="-609" y="233" as="targetPoint" />
          </mxGeometry>
        </mxCell>
        <mxCell id="s2X0ivsL2svDnWsdEjcb-274" value="挂载" style="edgeLabel;html=1;align=center;verticalAlign=middle;resizable=0;points=[];" parent="s2X0ivsL2svDnWsdEjcb-273" vertex="1" connectable="0">
          <mxGeometry x="0.0266" y="-1" relative="1" as="geometry">
            <mxPoint as="offset" />
          </mxGeometry>
        </mxCell>
        <mxCell id="s2X0ivsL2svDnWsdEjcb-276" style="edgeStyle=orthogonalEdgeStyle;rounded=0;orthogonalLoop=1;jettySize=auto;html=1;endArrow=blockThin;endFill=0;endSize=10;" parent="WIyWlLk6GJQsqaUBKTNV-1" source="s2X0ivsL2svDnWsdEjcb-265" target="s2X0ivsL2svDnWsdEjcb-19" edge="1">
          <mxGeometry relative="1" as="geometry">
            <mxPoint x="-380" y="-22" as="sourcePoint" />
            <mxPoint x="310" y="-160" as="targetPoint" />
            <Array as="points">
              <mxPoint x="-650" y="-160" />
            </Array>
          </mxGeometry>
        </mxCell>
        <mxCell id="s2X0ivsL2svDnWsdEjcb-277" value="继承" style="edgeLabel;html=1;align=center;verticalAlign=middle;resizable=0;points=[];" parent="s2X0ivsL2svDnWsdEjcb-276" vertex="1" connectable="0">
          <mxGeometry x="0.0486" y="-2" relative="1" as="geometry">
            <mxPoint as="offset" />
          </mxGeometry>
        </mxCell>
      </root>
    </mxGraphModel>
  </diagram>
</mxfile>
